<svg class="icon" viewBox="0 0 1024 1024" xmlns="http://www.w3.org/2000/svg" width="200" height="200"><defs><style/></defs><path d="M816.49 909H211.21c-1.1 0-2-.9-2-2v-68.18c0-1.1.9-2 2-2h605.28c1.1 0 2 .9 2 2V907c0 1.1-.9 2-2 2z" fill="#FA2"/><path d="M910.24 316.23c-27.11 0-49.1 22.52-49.1 50.31 0 7.28 1.58 14.16 4.3 20.4l-176.13 80.21-147.2-258.57c14.56-8.73 24.46-24.74 24.46-43.28 0-27.79-21.98-50.31-49.1-50.31s-49.1 22.52-49.1 50.31c0 17.99 9.29 33.66 23.15 42.55l-158.16 259.3-176.13-80.21c2.71-6.25 4.3-13.12 4.3-20.4 0-27.78-21.98-50.31-49.1-50.31s-49.1 22.52-49.1 50.31c0 27.78 21.98 50.31 49.1 50.31 3.99 0 7.82-.62 11.53-1.54l86.65 366.28h601.43l86.65-366.28c3.71.92 7.54 1.54 11.53 1.54 27.12 0 49.1-22.52 49.1-50.31.01-27.78-21.97-50.31-49.08-50.31z" fill="#FFD68D"/></svg>